<svg width="1706" height="1706" viewBox="0 0 1706 1706" fill="none" xmlns="http://www.w3.org/2000/svg">
<path d="M142.667 0.93335C101.2 7.46668 70 22.9333 44.9333 49.3333C23.8666 71.1999 9.86663 98.2666 3.06663 129.333C0.799959 140.267 0.666626 168.533 0.666626 853.333C0.666626 1538.13 0.799959 1566.4 3.06663 1577.33C17.2 1642.53 64.1333 1689.47 129.333 1703.6C140.267 1705.87 168.533 1706 853.333 1706C1538.13 1706 1566.4 1705.87 1577.33 1703.6C1620.13 1694.4 1656.13 1670.4 1678.93 1636C1691.73 1616.67 1698.67 1600 1703.6 1577.33C1705.87 1566.4 1706 1538.13 1706 853.333C1706 168.533 1705.87 140.267 1703.6 129.333C1694.4 86.5333 1670.4 50.5333 1636 27.7333C1617.33 15.4666 1601.73 8.79995 1578.67 3.19995C1569.07 0.799951 1540.13 0.666659 857.333 0.533325C466.133 0.399992 144.533 0.53335 142.667 0.93335ZM1564.4 90C1589.6 96.5333 1610.13 117.067 1616.67 142.267C1618.4 148.933 1618.67 234.667 1618.67 853.333C1618.67 1472 1618.4 1557.73 1616.67 1564.4C1610.13 1589.6 1589.6 1610.13 1564.4 1616.67C1557.73 1618.4 1472 1618.67 853.333 1618.67C234.667 1618.67 148.933 1618.4 142.267 1616.67C117.067 1610.13 96.5333 1589.6 90 1564.4C88.2666 1557.73 88 1472 88 853.333C88 234.667 88.2666 148.933 90 142.267C96.4 117.467 116.933 96.6667 141.733 90C147.6 88.4 251.867 88.1333 852.667 88.1333C1472.13 88 1557.73 88.2667 1564.4 90Z" fill="#008000"/>
<path d="M1451.34 942.86C1443.23 937.015 1428.62 929.944 1418.44 927.115C1413.82 925.89 1317.37 904.488 1203.76 879.692L997.378 834.532L954.198 773.815C930.344 740.534 847.849 624.851 770.727 516.805L630.625 320.324L625.157 320.135C622.234 320.041 588.765 318.438 550.864 316.552C512.963 314.855 481.756 313.63 481.379 314.007C481.096 314.29 489.487 331.166 500.141 351.436C510.7 371.612 529.085 406.591 540.776 429.029C552.561 451.563 571.888 488.804 583.956 511.808C595.93 534.718 615.541 572.431 627.609 595.435C639.582 618.346 659.004 655.681 670.695 678.12C682.48 700.653 698.413 731.105 706.144 745.813C713.876 760.71 720.098 772.966 719.815 773.249C719.532 773.532 648.916 757.787 562.838 738.459L406.425 703.293L373.05 647.855L339.486 592.418L291.214 582.425C264.627 576.768 237.757 571.205 231.534 569.885L220.126 567.34L238.606 708.761C253.313 822.087 257.367 850.277 259.347 850.748C710.576 952.948 1374.6 1102.95 1381.48 1104.36C1394.49 1106.81 1413.72 1106.44 1425.41 1103.42C1441.16 1099.37 1450.59 1093.71 1463.22 1081.08C1472.74 1071.37 1474.63 1068.91 1479.25 1059.2C1492.45 1031.48 1491.32 996.601 1476.42 970.768C1471.52 962.282 1459.17 948.612 1451.34 942.86Z" fill="#008000"/>
<path d="M389 1425.5V1478H939H1489V1425.5V1373H939H389V1425.5Z" fill="#008000"/>
</svg>
